<svg id="Grupo_345" data-name="Grupo 345" xmlns="http://www.w3.org/2000/svg" xmlns:xlink="http://www.w3.org/1999/xlink" width="250.949" height="75" viewBox="0 0 250.949 75">
  <defs>
    <style>
      .cls-1 {
        fill: none;
      }

      .cls-2 {
        clip-path: url(#clip-path);
      }

      .cls-3 {
        fill: #fff;
      }
    </style>
    <clipPath id="clip-path">
      <rect id="Rectángulo_75" data-name="Rectángulo 75" class="cls-1" width="250.949" height="75"/>
    </clipPath>
  </defs>
  <g id="Grupo_156" data-name="Grupo 156" class="cls-2">
    <path id="Trazado_6753" data-name="Trazado 6753" class="cls-3" d="M115.859,5.93a5.7,5.7,0,1,1-5.7-5.7,5.7,5.7,0,0,1,5.7,5.7" transform="translate(-67.142 -0.146)"/>
    <path id="Trazado_6754" data-name="Trazado 6754" class="cls-3" d="M129.394,42.373a3.173,3.173,0,1,1-3.173-3.173,3.173,3.173,0,0,1,3.173,3.173" transform="translate(-79.094 -25.197)"/>
    <path id="Trazado_6755" data-name="Trazado 6755" class="cls-3" d="M111.241,51.135a2.084,2.084,0,1,1-2.084-2.084,2.084,2.084,0,0,1,2.084,2.084" transform="translate(-68.826 -31.53)"/>
    <path id="Trazado_6756" data-name="Trazado 6756" class="cls-3" d="M126.48,74.689A2.084,2.084,0,1,1,124.4,72.6a2.084,2.084,0,0,1,2.084,2.084" transform="translate(-78.621 -46.67)"/>
    <path id="Trazado_6757" data-name="Trazado 6757" class="cls-3" d="M111.241,98.471a2.084,2.084,0,1,1-2.084-2.084,2.084,2.084,0,0,1,2.084,2.084" transform="translate(-68.826 -61.957)"/>
    <path id="Trazado_6758" data-name="Trazado 6758" class="cls-3" d="M4.168,74.689A2.084,2.084,0,1,1,2.084,72.6a2.084,2.084,0,0,1,2.084,2.084" transform="translate(0 -46.67)"/>
    <path id="Trazado_6759" data-name="Trazado 6759" class="cls-3" d="M26.682,53.613A2.084,2.084,0,1,1,24.6,51.529a2.084,2.084,0,0,1,2.084,2.084" transform="translate(-14.472 -33.122)"/>
    <path id="Trazado_6760" data-name="Trazado 6760" class="cls-3" d="M26.682,95.934A2.084,2.084,0,1,1,24.6,93.85a2.084,2.084,0,0,1,2.084,2.084" transform="translate(-14.472 -60.326)"/>
    <path id="Trazado_6761" data-name="Trazado 6761" class="cls-3" d="M145.667,72.729a3.173,3.173,0,1,1-3.173-3.173,3.173,3.173,0,0,1,3.173,3.173" transform="translate(-89.554 -44.71)"/>
    <path id="Trazado_6762" data-name="Trazado 6762" class="cls-3" d="M129.394,103.256a3.173,3.173,0,1,1-3.173-3.173,3.173,3.173,0,0,1,3.173,3.173" transform="translate(-79.094 -64.333)"/>
    <path id="Trazado_6763" data-name="Trazado 6763" class="cls-3" d="M47.287,103.256a3.173,3.173,0,1,1-3.173-3.173,3.173,3.173,0,0,1,3.173,3.173" transform="translate(-26.317 -64.333)"/>
    <path id="Trazado_6764" data-name="Trazado 6764" class="cls-3" d="M25.811,72.729a3.173,3.173,0,1,1-3.173-3.173,3.173,3.173,0,0,1,3.173,3.173" transform="translate(-12.512 -44.71)"/>
    <path id="Trazado_6765" data-name="Trazado 6765" class="cls-3" d="M47.287,42.373A3.173,3.173,0,1,1,44.114,39.2a3.173,3.173,0,0,1,3.173,3.173" transform="translate(-26.317 -25.197)"/>
    <path id="Trazado_6766" data-name="Trazado 6766" class="cls-3" d="M157.556,25.681a5.7,5.7,0,1,1-5.7-5.7,5.7,5.7,0,0,1,5.7,5.7" transform="translate(-93.944 -12.842)"/>
    <path id="Trazado_6767" data-name="Trazado 6767" class="cls-3" d="M176.31,68.176a5.7,5.7,0,1,1-5.7-5.7,5.7,5.7,0,0,1,5.7,5.7" transform="translate(-105.999 -40.157)"/>
    <path id="Trazado_6768" data-name="Trazado 6768" class="cls-3" d="M157.556,110.471a5.7,5.7,0,1,1-5.7-5.7,5.7,5.7,0,0,1,5.7,5.7" transform="translate(-93.944 -67.344)"/>
    <path id="Trazado_6769" data-name="Trazado 6769" class="cls-3" d="M115.859,130.222a5.7,5.7,0,1,1-5.7-5.7,5.7,5.7,0,0,1,5.7,5.7" transform="translate(-67.142 -80.04)"/>
    <path id="Trazado_6770" data-name="Trazado 6770" class="cls-3" d="M75.272,110.471a5.7,5.7,0,1,1-5.7-5.7,5.7,5.7,0,0,1,5.7,5.7" transform="translate(-41.053 -67.344)"/>
    <path id="Trazado_6771" data-name="Trazado 6771" class="cls-3" d="M56.519,68.176a5.7,5.7,0,1,1-5.7-5.7,5.7,5.7,0,0,1,5.7,5.7" transform="translate(-28.998 -40.157)"/>
    <path id="Trazado_6772" data-name="Trazado 6772" class="cls-3" d="M75.272,25.681a5.7,5.7,0,1,1-5.7-5.7,5.7,5.7,0,0,1,5.7,5.7" transform="translate(-41.053 -12.842)"/>
    <path id="Trazado_6773" data-name="Trazado 6773" class="cls-3" d="M232.281,28.27h-8.368l-14.565,32h6.813L219.01,53.5h11.221l1.059,6.852h7.063Zm-11.18,20,5.861-13.659,2.344,13.659Z" transform="translate(-134.567 -18.172)"/>
    <path id="Trazado_6774" data-name="Trazado 6774" class="cls-3" d="M305.787,58.591h-6.652l4.138-33.055h6.652Z" transform="translate(-192.282 -16.414)"/>
    <path id="Trazado_6775" data-name="Trazado 6775" class="cls-3" d="M339.244,58.591h-6.652l4.138-33.055h6.652Z" transform="translate(-213.787 -16.414)"/>
    <path id="Trazado_6776" data-name="Trazado 6776" class="cls-3" d="M388.861,56.595s.574-6.877-8.485-6.855c-7.532,0-13.081,5.679-13.081,13.71-.009,6.123,2.377,11.137,10.408,11.137a13.472,13.472,0,0,0,9.845-3.674l-2.231-3.85a10.826,10.826,0,0,1-6.677,2.634c-2.638-.035-4.784-1.77-4.784-4.3,9.213-.522,15-2.992,15-8.806m-14.742,4.256c-.031-2.1,1.959-6.649,5.66-6.649,1.519.056,2.883.827,2.914,2.618-.029,2.786-3.6,3.764-8.574,4.031" transform="translate(-236.094 -31.972)"/>
    <path id="Trazado_6777" data-name="Trazado 6777" class="cls-3" d="M433.4,74.018l3.041-23.88h6.3v3.555c2.4-3.956,5.358-4.958,8.781-3.555l-1.585,6.211c-4.2-1.481-7.542,2.4-7.881,4.372l-1.928,13.3Z" transform="translate(-278.589 -31.842)"/>
    <path id="Trazado_6778" data-name="Trazado 6778" class="cls-3" d="M585.327,50.065h-6.242l-.8,2.932a7.67,7.67,0,0,0-6.315-3.574c-6.872,0-11.532,7.05-11.532,13.68,0,7.777,2.8,11.3,8.554,11.281A9.517,9.517,0,0,0,576,70.817v3.129h6.255Zm-13.812,19c-2.877.01-4.278-2.013-4.278-6.479,0-2.778,2.331-7.857,5.768-7.857,2.685,0,4.233,1.651,4.192,7.168-.364,2.6-2.042,7.168-5.681,7.168" transform="translate(-360.244 -31.769)"/>
    <path id="Trazado_6779" data-name="Trazado 6779" class="cls-3" d="M506.255,50.065h-6.242l-.8,2.932h0a7.67,7.67,0,0,0-6.315-3.574c-6.872,0-11.532,7.049-11.532,13.679,0,7.777,5,9.928,8.367,9.928,4.3,0,5.529-1.586,7.379-3.653,0,8.687-7.236,10.251-14.019,5.665l-2.705,4.4a15.775,15.775,0,0,0,10.038,3.233c7.855,0,12.166-4.6,12.759-8.726ZM492.58,67.7c-2.877,0-4.3-1.887-4.3-5.121,0-2.778,1.767-7.817,5.656-7.842,2.768-.018,5.053,1.881,4.192,7.168-.364,2.6-2.423,5.8-5.544,5.8m43.483,6.248,3.092-23.91h6.256l-.036,3.372a9.063,9.063,0,0,1,7.784-3.949c7.421,0,6.548,7,6.548,7l-2,17.482h-6.8l1.964-15.372c.545-5.492-7.493-3.237-8.148.909l-1.964,14.463Z" transform="translate(-308.788 -31.769)"/>
    <path id="Trazado_6780" data-name="Trazado 6780" class="cls-3" d="M217.435,175.549v3.523a10.216,10.216,0,0,0,.268,2.662H215.29a5.555,5.555,0,0,1-.134-1.3h-.038a3.656,3.656,0,0,1-3.16,1.532c-2.068,0-3.313-1.264-3.313-2.949,0-1.589.957-2.662,3.772-3.1.728-.115,1.819-.23,2.432-.268V175.3c0-1.226-.651-1.724-1.589-1.724a1.446,1.446,0,0,0-1.609,1.475h-2.6c.1-1.857,1.436-3.351,4.213-3.351,2.757,0,4.174,1.3,4.174,3.849m-2.585,1.723c-.574.038-1.379.115-1.953.211-1.111.191-1.57.555-1.57,1.34,0,.728.5,1.226,1.436,1.226a2.193,2.193,0,0,0,1.532-.555,2.317,2.317,0,0,0,.555-1.857Z" transform="translate(-134.116 -110.367)"/>
    <path id="Trazado_6781" data-name="Trazado 6781" class="cls-3" d="M247.864,175.9v5.974h-2.681v-5.706c0-1.475-.651-2.145-1.7-2.145-1.111,0-1.915.881-1.915,2.642v5.208h-2.681v-9.727h2.509v1.226h.038a3.462,3.462,0,0,1,2.853-1.455c2.183,0,3.581,1.341,3.581,3.983" transform="translate(-153.552 -110.505)"/>
    <path id="Trazado_6782" data-name="Trazado 6782" class="cls-3" d="M283.91,171.923l-1.072,3.332h-2.949l4.729-13.634h3.791l4.729,13.634H290.19l-1.053-3.332Zm4.174-3.312c-.555-1.762-1.091-3.562-1.551-5.323h-.038c-.46,1.761-.977,3.561-1.532,5.323l-.287.9h3.7Z" transform="translate(-179.911 -103.889)"/>
    <path id="Trazado_6783" data-name="Trazado 6783" class="cls-3" d="M322.629,166.7a3.237,3.237,0,0,1,2.757-1.417c2.432,0,4,2.01,4,5.112s-1.589,5.113-4.04,5.113a3.208,3.208,0,0,1-2.8-1.532h-.038v1.283h-2.6V161.622h2.68V166.7Zm-.172,3.7c0,1.934.823,3.064,2.03,3.064,1.283,0,2.106-1.206,2.106-3.064s-.824-3.064-2.106-3.064c-1.206,0-2.03,1.13-2.03,3.064" transform="translate(-205.636 -103.889)"/>
    <path id="Trazado_6784" data-name="Trazado 6784" class="cls-3" d="M353.653,166.7a3.238,3.238,0,0,1,2.757-1.417c2.432,0,4,2.01,4,5.112s-1.589,5.113-4.04,5.113a3.208,3.208,0,0,1-2.8-1.532h-.038v1.283h-2.6V161.622h2.681V166.7Zm-.172,3.7c0,1.934.823,3.064,2.03,3.064,1.283,0,2.106-1.206,2.106-3.064s-.824-3.064-2.106-3.064c-1.206,0-2.03,1.13-2.03,3.064" transform="translate(-225.578 -103.889)"/>
    <path id="Trazado_6785" data-name="Trazado 6785" class="cls-3" d="M380.626,175.255l-4.232-13.633h2.872l1.628,5.3c.574,1.838,1.072,3.715,1.474,5.572h.038c.4-1.857.919-3.734,1.474-5.572l1.628-5.3h2.872l-4.232,13.633Z" transform="translate(-241.943 -103.889)"/>
    <path id="Trazado_6786" data-name="Trazado 6786" class="cls-3" d="M412.946,161.622h2.681v2.3h-2.681Zm0,3.906h2.681v9.727h-2.681Z" transform="translate(-265.439 -103.889)"/>
    <path id="Trazado_6787" data-name="Trazado 6787" class="cls-3" d="M431.524,178.784h2.738c-.383,1.781-2.068,3.255-4.653,3.255-3.064,0-4.844-2.145-4.844-5.247,0-2.872,1.781-5.093,4.825-5.093a4.49,4.49,0,0,1,4.5,3.236,8.063,8.063,0,0,1,.306,2.489h-6.989c.077,2.011,1.053,2.719,2.2,2.719a1.764,1.764,0,0,0,1.915-1.36m-4.059-3.044h4.251a2.113,2.113,0,0,0-2.125-2.145c-1.092,0-1.915.67-2.125,2.145" transform="translate(-273.036 -110.367)"/>
    <path id="Trazado_6788" data-name="Trazado 6788" class="cls-3" d="M116.034,5.712A5.712,5.712,0,1,1,110.323,0a5.711,5.711,0,0,1,5.711,5.711" transform="translate(-67.243 -0.001)"/>
    <path id="Trazado_6789" data-name="Trazado 6789" class="cls-3" d="M129.59,42.21a3.178,3.178,0,1,1-3.178-3.178,3.178,3.178,0,0,1,3.178,3.178" transform="translate(-79.214 -25.089)"/>
    <path id="Trazado_6790" data-name="Trazado 6790" class="cls-3" d="M111.409,50.984a2.087,2.087,0,1,1-2.087-2.087,2.087,2.087,0,0,1,2.087,2.087" transform="translate(-68.93 -31.431)"/>
    <path id="Trazado_6791" data-name="Trazado 6791" class="cls-3" d="M126.671,74.574a2.087,2.087,0,1,1-2.087-2.087,2.087,2.087,0,0,1,2.087,2.087" transform="translate(-78.74 -46.594)"/>
    <path id="Trazado_6792" data-name="Trazado 6792" class="cls-3" d="M111.409,98.392a2.087,2.087,0,1,1-2.087-2.087,2.087,2.087,0,0,1,2.087,2.087" transform="translate(-68.93 -61.904)"/>
    <path id="Trazado_6793" data-name="Trazado 6793" class="cls-3" d="M4.174,74.574a2.087,2.087,0,1,1-2.087-2.087,2.087,2.087,0,0,1,2.087,2.087" transform="translate(0 -46.594)"/>
    <path id="Trazado_6794" data-name="Trazado 6794" class="cls-3" d="M26.722,53.466a2.087,2.087,0,1,1-2.087-2.087,2.087,2.087,0,0,1,2.087,2.087" transform="translate(-14.494 -33.026)"/>
    <path id="Trazado_6795" data-name="Trazado 6795" class="cls-3" d="M26.722,95.851a2.087,2.087,0,1,1-2.087-2.087,2.087,2.087,0,0,1,2.087,2.087" transform="translate(-14.494 -60.271)"/>
    <path id="Trazado_6796" data-name="Trazado 6796" class="cls-3" d="M145.888,72.611a3.178,3.178,0,1,1-3.178-3.178,3.178,3.178,0,0,1,3.178,3.178" transform="translate(-89.69 -44.631)"/>
    <path id="Trazado_6797" data-name="Trazado 6797" class="cls-3" d="M129.59,103.185a3.178,3.178,0,1,1-3.178-3.178,3.178,3.178,0,0,1,3.178,3.178" transform="translate(-79.214 -64.284)"/>
    <path id="Trazado_6798" data-name="Trazado 6798" class="cls-3" d="M47.359,103.185a3.178,3.178,0,1,1-3.178-3.178,3.178,3.178,0,0,1,3.178,3.178" transform="translate(-26.356 -64.284)"/>
    <path id="Trazado_6799" data-name="Trazado 6799" class="cls-3" d="M25.85,72.611a3.178,3.178,0,1,1-3.178-3.178,3.178,3.178,0,0,1,3.178,3.178" transform="translate(-12.531 -44.631)"/>
    <path id="Trazado_6800" data-name="Trazado 6800" class="cls-3" d="M47.359,42.21a3.178,3.178,0,1,1-3.178-3.178,3.178,3.178,0,0,1,3.178,3.178" transform="translate(-26.356 -25.089)"/>
    <path id="Trazado_6801" data-name="Trazado 6801" class="cls-3" d="M157.793,25.493a5.712,5.712,0,1,1-5.711-5.711,5.711,5.711,0,0,1,5.711,5.711" transform="translate(-94.086 -12.716)"/>
    <path id="Trazado_6802" data-name="Trazado 6802" class="cls-3" d="M176.576,68.052a5.712,5.712,0,1,1-5.711-5.711,5.711,5.711,0,0,1,5.711,5.711" transform="translate(-106.159 -40.072)"/>
    <path id="Trazado_6803" data-name="Trazado 6803" class="cls-3" d="M157.793,110.411a5.712,5.712,0,1,1-5.711-5.711,5.711,5.711,0,0,1,5.711,5.711" transform="translate(-94.086 -67.3)"/>
    <path id="Trazado_6804" data-name="Trazado 6804" class="cls-3" d="M116.034,130.192a5.712,5.712,0,1,1-5.711-5.711,5.711,5.711,0,0,1,5.711,5.711" transform="translate(-67.243 -80.015)"/>
    <path id="Trazado_6805" data-name="Trazado 6805" class="cls-3" d="M75.385,110.411a5.712,5.712,0,1,1-5.711-5.711,5.711,5.711,0,0,1,5.711,5.711" transform="translate(-41.114 -67.3)"/>
    <path id="Trazado_6806" data-name="Trazado 6806" class="cls-3" d="M56.6,68.052a5.712,5.712,0,1,1-5.711-5.711A5.711,5.711,0,0,1,56.6,68.052" transform="translate(-29.041 -40.072)"/>
    <path id="Trazado_6807" data-name="Trazado 6807" class="cls-3" d="M75.385,25.493a5.712,5.712,0,1,1-5.711-5.711,5.711,5.711,0,0,1,5.711,5.711" transform="translate(-41.114 -12.716)"/>
    <path id="Trazado_6808" data-name="Trazado 6808" class="cls-3" d="M221.436,48.121l5.87-13.679,2.348,13.679Zm11.2-20.035h-8.38L209.665,60.133h6.824l2.853-6.783h11.238l1.06,6.862h7.074Z" transform="translate(-134.771 -18.053)"/>
    <path id="Trazado_6809" data-name="Trazado 6809" class="cls-3" d="M306.25,58.452h-6.662l4.144-33.1h6.662Z" transform="translate(-192.573 -16.293)"/>
    <path id="Trazado_6810" data-name="Trazado 6810" class="cls-3" d="M339.757,58.452h-6.662l4.144-33.1H343.9Z" transform="translate(-214.111 -16.293)"/>
    <path id="Trazado_6811" data-name="Trazado 6811" class="cls-3" d="M479.216,175.778h-2.778a1.79,1.79,0,0,0-1.807-1.845c-1.294,0-2.074,1.179-2.074,3.082s.78,3.082,2.074,3.082c1.027,0,1.712-.78,1.789-2.036h2.8a4.3,4.3,0,0,1-4.567,4.091c-2.949,0-4.871-2.017-4.871-5.137s1.922-5.137,4.871-5.137a4.276,4.276,0,0,1,4.567,3.9" transform="translate(-301.97 -110.482)"/>
    <path id="Trazado_6812" data-name="Trazado 6812" class="cls-3" d="M509.928,177.014c0,3.139-1.922,5.137-4.947,5.137s-4.947-2-4.947-5.137,1.922-5.137,4.947-5.137,4.947,2,4.947,5.137m-7.1,0c0,1.884.837,3.082,2.15,3.082s2.15-1.2,2.15-3.082-.837-3.082-2.15-3.082-2.15,1.2-2.15,3.082" transform="translate(-321.418 -110.481)"/>
    <path id="Trazado_6813" data-name="Trazado 6813" class="cls-3" d="M547.793,176.048v5.936h-2.664v-5.67c0-1.465-.59-2.131-1.522-2.131-1.142,0-1.77,1.008-1.77,2.835v4.966h-2.664v-5.841c0-1.237-.533-1.96-1.522-1.96-1.161,0-1.77,1.027-1.77,2.835v4.966h-2.664v-9.666h2.512v1.1h.038a3.12,3.12,0,0,1,2.683-1.332,2.969,2.969,0,0,1,2.873,1.655,3.457,3.457,0,0,1,3.082-1.655c2.074,0,3.387,1.332,3.387,3.958" transform="translate(-342.748 -110.618)"/>
    <path id="Trazado_6814" data-name="Trazado 6814" class="cls-3" d="M590.415,177.117c0,3.082-1.56,5.08-3.976,5.08a3.218,3.218,0,0,1-2.74-1.408h-.038v4.681H581V172.285h2.588v1.275h.038a3.187,3.187,0,0,1,2.778-1.522c2.435,0,4.015,2,4.015,5.08m-6.888,0c0,1.922.818,3.044,2.017,3.044,1.275,0,2.093-1.2,2.093-3.044s-.818-3.044-2.093-3.044c-1.2,0-2.017,1.122-2.017,3.044" transform="translate(-373.461 -110.584)"/>
    <path id="Trazado_6815" data-name="Trazado 6815" class="cls-3" d="M619.345,175.7v3.5a10.147,10.147,0,0,0,.266,2.645h-2.4a5.524,5.524,0,0,1-.133-1.294h-.038a3.631,3.631,0,0,1-3.14,1.522c-2.055,0-3.292-1.256-3.292-2.93,0-1.58.951-2.645,3.748-3.083.723-.114,1.808-.228,2.416-.266v-.343c0-1.218-.647-1.712-1.579-1.712a1.436,1.436,0,0,0-1.6,1.465h-2.588c.095-1.845,1.427-3.33,4.186-3.33,2.74,0,4.148,1.294,4.148,3.824m-2.569,1.712c-.571.038-1.37.114-1.941.209-1.1.19-1.56.552-1.56,1.332,0,.723.494,1.217,1.427,1.217a2.179,2.179,0,0,0,1.522-.552,2.3,2.3,0,0,0,.552-1.846Z" transform="translate(-392.497 -110.481)"/>
    <path id="Trazado_6816" data-name="Trazado 6816" class="cls-3" d="M650.909,176.048v5.936h-2.664v-5.67c0-1.465-.647-2.131-1.693-2.131-1.1,0-1.9.875-1.9,2.626v5.175h-2.664v-9.666h2.492v1.218h.038a3.439,3.439,0,0,1,2.835-1.446c2.169,0,3.558,1.332,3.558,3.958" transform="translate(-412.664 -110.618)"/>
    <path id="Trazado_6817" data-name="Trazado 6817" class="cls-3" d="M675.278,182.452c-.971,2.721-2.188,3.577-4.6,3.577a6.348,6.348,0,0,1-1.389-.152v-2.131a3.168,3.168,0,0,0,1.028.152,1.572,1.572,0,0,0,1.77-1.56,5.286,5.286,0,0,0-.457-1.75l-2.74-7.858h2.854l.989,3.235c.4,1.332.761,2.7,1.066,4.053h.038c.323-1.351.685-2.721,1.123-4.053L676,172.729h2.74Z" transform="translate(-429.954 -111.029)"/>
  </g>
</svg>
