<svg xmlns="http://www.w3.org/2000/svg" xmlns:xlink="http://www.w3.org/1999/xlink" width="162" height="47" viewBox="0 0 162 47">
  <defs>
    <style>
      .cls-1 {
        fill: none;
      }

      .cls-2 {
        fill: #fff;
      }

      .cls-3 {
        clip-path: url(#clip-path);
      }

      .cls-4 {
        fill: #006cb7;
      }

      .cls-5 {
        fill: #008cb3;
      }

      .cls-6 {
        fill: #9fbe24;
      }

      .cls-7 {
        fill: #85b52b;
      }

      .cls-8 {
        fill: #0056a1;
      }

      .cls-9 {
        fill: #559733;
      }

      .cls-10 {
        fill: #004f9d;
      }

      .cls-11 {
        fill: #0066b3;
      }

      .cls-12 {
        fill: #0089b1;
      }

      .cls-13 {
        fill: #9cbc25;
      }

      .cls-14 {
        fill: #7eb42c;
      }

      .cls-15 {
        fill: #4e9333;
      }
    </style>
    <clipPath id="clip-path">
      <rect id="Rectángulo_217" data-name="Rectángulo 217" class="cls-1" width="162" height="47"/>
    </clipPath>
  </defs>
  <g id="Allergan_copia" data-name="Allergan copia" transform="translate(-459 -1828)">
    <g id="Allergan_copia-2" data-name="Allergan copia" transform="translate(459 1828)">
      <g id="Grupo_317" data-name="Grupo 317">
        <g id="Grupo_316" data-name="Grupo 316" class="cls-3">
          <path id="Trazado_3311" data-name="Trazado 3311" class="cls-4" d="M30.537,3.625A3.575,3.575,0,1,1,26.962.051a3.574,3.574,0,0,1,3.575,3.574"/>
          <path id="Trazado_3312" data-name="Trazado 3312" class="cls-4" d="M31.528,10.764a1.989,1.989,0,1,1-1.989-1.989,1.989,1.989,0,0,1,1.989,1.989"/>
          <path id="Trazado_3313" data-name="Trazado 3313" class="cls-5" d="M26.586,12.286A1.306,1.306,0,1,1,25.28,10.98a1.306,1.306,0,0,1,1.306,1.306"/>
          <path id="Trazado_3314" data-name="Trazado 3314" class="cls-5" d="M30,17.559a1.306,1.306,0,1,1-1.306-1.306A1.306,1.306,0,0,1,30,17.559"/>
          <path id="Trazado_3315" data-name="Trazado 3315" class="cls-5" d="M26.586,22.882a1.306,1.306,0,1,1-1.306-1.306,1.306,1.306,0,0,1,1.306,1.306"/>
          <path id="Trazado_3316" data-name="Trazado 3316" class="cls-6" d="M2.612,17.559a1.306,1.306,0,1,1-1.306-1.306,1.306,1.306,0,0,1,1.306,1.306"/>
          <path id="Trazado_3317" data-name="Trazado 3317" class="cls-6" d="M7.653,12.841a1.306,1.306,0,1,1-1.306-1.306,1.306,1.306,0,0,1,1.306,1.306"/>
          <path id="Trazado_3318" data-name="Trazado 3318" class="cls-6" d="M7.653,22.314a1.306,1.306,0,1,1-1.306-1.306,1.306,1.306,0,0,1,1.306,1.306"/>
          <path id="Trazado_3319" data-name="Trazado 3319" class="cls-4" d="M35.172,17.559a1.989,1.989,0,1,1-1.989-1.989,1.989,1.989,0,0,1,1.989,1.989"/>
          <path id="Trazado_3320" data-name="Trazado 3320" class="cls-4" d="M31.528,24.392A1.989,1.989,0,1,1,29.539,22.4a1.989,1.989,0,0,1,1.989,1.989"/>
          <path id="Trazado_3321" data-name="Trazado 3321" class="cls-7" d="M13.145,24.392A1.989,1.989,0,1,1,11.156,22.4a1.989,1.989,0,0,1,1.989,1.989"/>
          <path id="Trazado_3322" data-name="Trazado 3322" class="cls-7" d="M8.336,17.559A1.989,1.989,0,1,1,6.347,15.57a1.989,1.989,0,0,1,1.989,1.989"/>
          <path id="Trazado_3323" data-name="Trazado 3323" class="cls-7" d="M13.145,10.764a1.989,1.989,0,1,1-1.989-1.989,1.989,1.989,0,0,1,1.989,1.989"/>
          <path id="Trazado_3324" data-name="Trazado 3324" class="cls-8" d="M39.873,8.046A3.575,3.575,0,1,1,36.3,4.472a3.574,3.574,0,0,1,3.575,3.574"/>
          <path id="Trazado_3325" data-name="Trazado 3325" class="cls-8" d="M44.071,17.559A3.575,3.575,0,1,1,40.5,13.985a3.574,3.574,0,0,1,3.575,3.574"/>
          <path id="Trazado_3326" data-name="Trazado 3326" class="cls-8" d="M39.873,27.026A3.575,3.575,0,1,1,36.3,23.452a3.574,3.574,0,0,1,3.575,3.574"/>
          <path id="Trazado_3327" data-name="Trazado 3327" class="cls-4" d="M30.537,31.447a3.575,3.575,0,1,1-3.575-3.574,3.574,3.574,0,0,1,3.575,3.574"/>
          <path id="Trazado_3328" data-name="Trazado 3328" class="cls-9" d="M21.449,27.026a3.575,3.575,0,1,1-3.575-3.574,3.574,3.574,0,0,1,3.575,3.574"/>
          <path id="Trazado_3329" data-name="Trazado 3329" class="cls-9" d="M17.25,17.559a3.575,3.575,0,1,1-3.575-3.574,3.574,3.574,0,0,1,3.575,3.574"/>
          <path id="Trazado_3330" data-name="Trazado 3330" class="cls-9" d="M21.449,8.046a3.575,3.575,0,1,1-3.575-3.574,3.574,3.574,0,0,1,3.575,3.574"/>
          <path id="Trazado_3331" data-name="Trazado 3331" class="cls-10" d="M61.248,6.328H56L46.873,26.381h4.271l1.786-4.244h7.033l.664,4.294h4.427ZM54.24,18.864l3.674-8.559,1.469,8.559Z"/>
          <path id="Trazado_3332" data-name="Trazado 3332" class="cls-10" d="M71.146,26.43h-4.17L69.571,5.716h4.17Z"/>
          <path id="Trazado_3333" data-name="Trazado 3333" class="cls-10" d="M78.637,26.43h-4.17L77.062,5.716h4.17Z"/>
          <path id="Trazado_3334" data-name="Trazado 3334" class="cls-10" d="M95.756,15.43s.36-4.31-5.318-4.3c-4.721,0-8.2,3.558-8.2,8.591-.006,3.837,1.49,6.979,6.524,6.979a8.445,8.445,0,0,0,6.171-2.3l-1.4-2.412a6.786,6.786,0,0,1-4.185,1.651,2.812,2.812,0,0,1-3-2.693c5.775-.327,9.4-1.875,9.4-5.518M86.515,18.1c-.019-1.319,1.228-4.167,3.548-4.167a1.671,1.671,0,0,1,1.827,1.641c-.018,1.746-2.26,2.359-5.374,2.526"/>
          <path id="Trazado_3335" data-name="Trazado 3335" class="cls-10" d="M97.04,26.43l1.906-14.965h3.947v2.228c1.5-2.479,3.358-3.107,5.5-2.228l-.993,3.892c-2.634-.928-4.728,1.5-4.94,2.74l-1.208,8.333Z"/>
          <path id="Trazado_3336" data-name="Trazado 3336" class="cls-10" d="M141.084,11.465h-3.913l-.5,1.838a4.808,4.808,0,0,0-3.958-2.24c-4.308,0-7.229,4.418-7.229,8.573,0,4.873,1.756,7.08,5.362,7.069a5.965,5.965,0,0,0,4.394-2.235V26.43h3.921Zm-8.657,11.909c-1.8.006-2.682-1.261-2.682-4.06,0-1.741,1.461-4.924,3.615-4.924,1.683,0,2.653,1.034,2.627,4.492-.228,1.628-1.28,4.492-3.561,4.492"/>
          <path id="Trazado_3337" data-name="Trazado 3337" class="cls-10" d="M123.774,11.465h-3.913l-.5,1.838a4.808,4.808,0,0,0-3.958-2.24c-4.308,0-7.229,4.418-7.229,8.573,0,4.873,3.136,6.222,5.245,6.222,2.7,0,3.466-.994,4.625-2.289,0,5.444-4.535,6.424-8.787,3.55l-1.7,2.755a9.888,9.888,0,0,0,6.292,2.026c4.924,0,7.625-2.882,8-5.468ZM115.2,22.515c-1.8,0-2.7-1.183-2.7-3.209,0-1.741,1.108-4.9,3.545-4.915,1.735-.011,3.167,1.179,2.627,4.492-.228,1.628-1.519,3.632-3.475,3.632m27.255,3.915L144.4,11.447h3.922l-.023,2.113a5.681,5.681,0,0,1,4.879-2.475,3.814,3.814,0,0,1,4.1,4.39L156.024,26.43H151.76l1.231-9.633c.342-3.442-4.7-2.029-5.107.57l-1.231,9.063Z"/>
          <path id="Trazado_3338" data-name="Trazado 3338" class="cls-10" d="M52.225,40.847v2.208a6.405,6.405,0,0,0,.168,1.668H50.881a3.475,3.475,0,0,1-.084-.816h-.024a2.292,2.292,0,0,1-1.98.96,1.864,1.864,0,0,1-2.076-1.848c0-1,.6-1.668,2.364-1.944.456-.072,1.14-.144,1.524-.168v-.216c0-.768-.408-1.08-1-1.08a.906.906,0,0,0-1.008.924H46.968c.06-1.164.9-2.1,2.64-2.1s2.617.816,2.617,2.412m-1.62,1.08c-.36.024-.865.072-1.225.132-.7.12-.984.348-.984.84,0,.456.312.768.9.768a1.373,1.373,0,0,0,.96-.348,1.452,1.452,0,0,0,.348-1.164Z"/>
          <path id="Trazado_3339" data-name="Trazado 3339" class="cls-10" d="M59.115,40.979v3.744h-1.68V41.147c0-.924-.408-1.344-1.068-1.344-.7,0-1.2.552-1.2,1.656v3.264h-1.68v-6.1h1.572v.768h.024a2.17,2.17,0,0,1,1.788-.912c1.368,0,2.244.84,2.244,2.5"/>
          <path id="Trazado_3340" data-name="Trazado 3340" class="cls-10" d="M65.188,42.635l-.672,2.088H62.668l2.964-8.543h2.376l2.964,8.543H69.125l-.66-2.088ZM67.8,40.559c-.348-1.1-.684-2.232-.972-3.336h-.024c-.288,1.1-.612,2.232-.96,3.336l-.18.564h2.317Z"/>
          <path id="Trazado_3341" data-name="Trazado 3341" class="cls-10" d="M73.332,39.359a2.029,2.029,0,0,1,1.728-.888c1.524,0,2.508,1.26,2.508,3.2s-1,3.2-2.532,3.2a2.01,2.01,0,0,1-1.752-.96H73.26v.8H71.628V36.179h1.68v3.18Zm-.108,2.316c0,1.212.516,1.92,1.272,1.92.8,0,1.32-.756,1.32-1.92s-.516-1.92-1.32-1.92c-.756,0-1.272.708-1.272,1.92"/>
          <path id="Trazado_3342" data-name="Trazado 3342" class="cls-10" d="M80.279,39.359a2.029,2.029,0,0,1,1.728-.888c1.524,0,2.508,1.26,2.508,3.2s-1,3.2-2.532,3.2a2.01,2.01,0,0,1-1.752-.96h-.024v.8H78.575V36.179h1.68v3.18Zm-.108,2.316c0,1.212.516,1.92,1.272,1.92.8,0,1.32-.756,1.32-1.92s-.516-1.92-1.32-1.92c-.756,0-1.272.708-1.272,1.92"/>
          <path id="Trazado_3343" data-name="Trazado 3343" class="cls-10" d="M86.928,44.723l-2.653-8.544h1.8L87.1,39.5c.36,1.152.672,2.328.924,3.492h.024c.252-1.164.576-2.34.924-3.492l1.02-3.324h1.8l-2.653,8.544Z"/>
          <path id="Trazado_3344" data-name="Trazado 3344" class="cls-10" d="M92.459,36.179h1.68v1.44h-1.68Zm0,2.448h1.68v6.1h-1.68Z"/>
          <path id="Trazado_3345" data-name="Trazado 3345" class="cls-10" d="M99.342,42.875h1.716a2.775,2.775,0,0,1-2.916,2.04c-1.92,0-3.036-1.344-3.036-3.288a2.949,2.949,0,0,1,3.024-3.192,2.814,2.814,0,0,1,2.821,2.028,5.057,5.057,0,0,1,.192,1.56H96.762c.048,1.26.66,1.7,1.38,1.7a1.106,1.106,0,0,0,1.2-.852M96.8,40.967h2.664a1.324,1.324,0,0,0-1.332-1.344c-.684,0-1.2.42-1.332,1.344"/>
          <path id="Trazado_3346" data-name="Trazado 3346" class="cls-11" d="M30.583,3.579A3.58,3.58,0,1,1,27,0a3.58,3.58,0,0,1,3.58,3.579"/>
          <path id="Trazado_3347" data-name="Trazado 3347" class="cls-11" d="M31.576,10.729a1.992,1.992,0,1,1-1.992-1.991,1.992,1.992,0,0,1,1.992,1.991"/>
          <path id="Trazado_3348" data-name="Trazado 3348" class="cls-12" d="M26.626,12.254a1.308,1.308,0,1,1-1.308-1.308,1.308,1.308,0,0,1,1.308,1.308"/>
          <path id="Trazado_3349" data-name="Trazado 3349" class="cls-12" d="M30.044,17.534a1.308,1.308,0,1,1-1.308-1.308,1.308,1.308,0,0,1,1.308,1.308"/>
          <path id="Trazado_3350" data-name="Trazado 3350" class="cls-12" d="M26.626,22.866a1.308,1.308,0,1,1-1.308-1.308,1.308,1.308,0,0,1,1.308,1.308"/>
          <path id="Trazado_3351" data-name="Trazado 3351" class="cls-13" d="M2.616,17.534a1.308,1.308,0,1,1-1.308-1.308,1.308,1.308,0,0,1,1.308,1.308"/>
          <path id="Trazado_3352" data-name="Trazado 3352" class="cls-13" d="M7.665,12.809A1.308,1.308,0,1,1,6.357,11.5a1.308,1.308,0,0,1,1.308,1.308"/>
          <path id="Trazado_3353" data-name="Trazado 3353" class="cls-13" d="M7.665,22.3a1.308,1.308,0,1,1-1.308-1.308A1.308,1.308,0,0,1,7.665,22.3"/>
          <path id="Trazado_3354" data-name="Trazado 3354" class="cls-11" d="M35.225,17.534a1.992,1.992,0,1,1-1.992-1.991,1.992,1.992,0,0,1,1.992,1.991"/>
          <path id="Trazado_3355" data-name="Trazado 3355" class="cls-11" d="M31.576,24.378a1.992,1.992,0,1,1-1.992-1.991,1.992,1.992,0,0,1,1.992,1.991"/>
          <path id="Trazado_3356" data-name="Trazado 3356" class="cls-14" d="M13.165,24.378a1.992,1.992,0,1,1-1.992-1.991,1.992,1.992,0,0,1,1.992,1.991"/>
          <path id="Trazado_3357" data-name="Trazado 3357" class="cls-14" d="M8.349,17.534a1.992,1.992,0,1,1-1.992-1.991,1.992,1.992,0,0,1,1.992,1.991"/>
          <path id="Trazado_3358" data-name="Trazado 3358" class="cls-14" d="M13.165,10.729a1.992,1.992,0,1,1-1.992-1.991,1.992,1.992,0,0,1,1.992,1.991"/>
          <path id="Trazado_3359" data-name="Trazado 3359" class="cls-10" d="M39.933,8.007a3.58,3.58,0,1,1-3.58-3.579,3.58,3.58,0,0,1,3.58,3.579"/>
          <path id="Trazado_3360" data-name="Trazado 3360" class="cls-10" d="M44.138,17.534a3.58,3.58,0,1,1-3.58-3.579,3.58,3.58,0,0,1,3.58,3.579"/>
          <path id="Trazado_3361" data-name="Trazado 3361" class="cls-10" d="M39.933,27.016a3.58,3.58,0,1,1-3.58-3.579,3.58,3.58,0,0,1,3.58,3.579"/>
          <path id="Trazado_3362" data-name="Trazado 3362" class="cls-11" d="M30.583,31.444A3.58,3.58,0,1,1,27,27.865a3.58,3.58,0,0,1,3.58,3.579"/>
          <path id="Trazado_3363" data-name="Trazado 3363" class="cls-15" d="M21.482,27.016a3.58,3.58,0,1,1-3.58-3.579,3.58,3.58,0,0,1,3.58,3.579"/>
          <path id="Trazado_3364" data-name="Trazado 3364" class="cls-15" d="M17.276,17.534a3.58,3.58,0,1,1-3.58-3.579,3.58,3.58,0,0,1,3.58,3.579"/>
          <path id="Trazado_3365" data-name="Trazado 3365" class="cls-15" d="M21.482,8.007A3.58,3.58,0,1,1,17.9,4.428a3.58,3.58,0,0,1,3.58,3.579"/>
          <path id="Trazado_3366" data-name="Trazado 3366" class="cls-10" d="M54.322,18.842,58,10.27l1.471,8.572ZM61.341,6.287H56.088L46.944,26.37h4.277l1.788-4.251h7.044l.664,4.3h4.434Z"/>
          <path id="Trazado_3367" data-name="Trazado 3367" class="cls-10" d="M71.254,26.42H67.078l2.6-20.746h4.176Z"/>
          <path id="Trazado_3368" data-name="Trazado 3368" class="cls-10" d="M78.756,26.42H74.58l2.6-20.746h4.176Z"/>
          <path id="Trazado_3369" data-name="Trazado 3369" class="cls-10" d="M159.708,26.42h-.338V25.108h-.433v-.281h1.2v.281h-.433Z"/>
          <path id="Trazado_3370" data-name="Trazado 3370" class="cls-10" d="M160.971,26.42l-.384-1.25h-.01q.021.382.021.509v.741h-.3V24.827h.46l.377,1.218h.006l.4-1.218H162V26.42h-.315v-.754c0-.036,0-.077,0-.123s.006-.17.015-.37h-.01l-.411,1.247Z"/>
          <path id="Trazado_3371" data-name="Trazado 3371" class="cls-10" d="M111.1,40.919h-1.741a1.122,1.122,0,0,0-1.133-1.156c-.811,0-1.3.739-1.3,1.931s.489,1.932,1.3,1.932c.644,0,1.073-.489,1.121-1.276H111.1a2.693,2.693,0,0,1-2.862,2.563,2.945,2.945,0,0,1-3.053-3.219,2.945,2.945,0,0,1,3.053-3.219,2.68,2.68,0,0,1,2.862,2.444"/>
          <path id="Trazado_3372" data-name="Trazado 3372" class="cls-10" d="M118.16,41.694a3.1,3.1,0,1,1-6.2,0,3.1,3.1,0,1,1,6.2,0m-4.448,0c0,1.18.525,1.932,1.348,1.932s1.348-.751,1.348-1.932-.525-1.932-1.348-1.932-1.348.751-1.348,1.932"/>
          <path id="Trazado_3373" data-name="Trazado 3373" class="cls-10" d="M128.524,41v3.72h-1.67V41.169c0-.918-.37-1.336-.954-1.336-.716,0-1.109.632-1.109,1.777v3.112h-1.67V41.062c0-.775-.334-1.228-.954-1.228-.728,0-1.109.644-1.109,1.777v3.112h-1.67V38.665h1.574v.692h.024a1.956,1.956,0,0,1,1.682-.835,1.86,1.86,0,0,1,1.8,1.037,2.167,2.167,0,0,1,1.932-1.037c1.3,0,2.123.835,2.123,2.48"/>
          <path id="Trazado_3374" data-name="Trazado 3374" class="cls-10" d="M135.99,41.694c0,1.932-.978,3.183-2.493,3.183A2.016,2.016,0,0,1,131.78,44h-.024v2.933h-1.67V38.666h1.622v.8h.024a2,2,0,0,1,1.741-.954c1.527,0,2.517,1.252,2.517,3.183m-4.317,0c0,1.2.513,1.908,1.264,1.908.8,0,1.312-.751,1.312-1.908s-.513-1.908-1.312-1.908c-.751,0-1.264.7-1.264,1.908"/>
          <path id="Trazado_3375" data-name="Trazado 3375" class="cls-10" d="M142.191,40.871v2.194a6.358,6.358,0,0,0,.167,1.657h-1.5a3.471,3.471,0,0,1-.083-.811h-.024a2.276,2.276,0,0,1-1.968.954,1.853,1.853,0,0,1-2.063-1.836c0-.99.6-1.657,2.349-1.932.453-.071,1.133-.143,1.515-.167v-.215c0-.763-.406-1.073-.99-1.073a.9.9,0,0,0-1,.918h-1.622c.06-1.157.894-2.087,2.624-2.087s2.6.811,2.6,2.4m-1.61,1.073c-.358.024-.859.071-1.216.131-.692.119-.978.346-.978.835,0,.453.31.763.894.763a1.365,1.365,0,0,0,.954-.346,1.442,1.442,0,0,0,.346-1.157Z"/>
          <path id="Trazado_3376" data-name="Trazado 3376" class="cls-10" d="M149.335,41v3.72h-1.67V41.169c0-.918-.405-1.336-1.061-1.336-.692,0-1.193.549-1.193,1.646v3.243h-1.67V38.665H145.3v.763h.024a2.155,2.155,0,0,1,1.777-.906c1.36,0,2.23.835,2.23,2.48"/>
          <path id="Trazado_3377" data-name="Trazado 3377" class="cls-10" d="M153.772,44.758c-.608,1.7-1.372,2.242-2.886,2.242a3.979,3.979,0,0,1-.871-.1V45.569a1.985,1.985,0,0,0,.644.1.985.985,0,0,0,1.109-.978,3.307,3.307,0,0,0-.286-1.1l-1.717-4.924h1.789l.62,2.027c.25.835.477,1.693.668,2.54h.024c.2-.846.429-1.7.7-2.54l.656-2.027h1.717Z"/>
        </g>
      </g>
    </g>
    <path id="Color_Overlay" data-name="Color Overlay" class="cls-2" d="M609.015,1874.9v-1.336a1.966,1.966,0,0,0,.644.1.985.985,0,0,0,1.109-.977,3.306,3.306,0,0,0-.286-1.1l-1.717-4.924h1.788l.621,2.027c.25.834.477,1.693.668,2.54h.023c.2-.847.429-1.705.7-2.54l.656-2.027h1.717l-2.171,6.093c-.607,1.7-1.372,2.241-2.886,2.241A3.987,3.987,0,0,1,609.015,1874.9Zm-19.929.024v-8.263h1.622v.8h.024a2,2,0,0,1,1.741-.953c1.527,0,2.517,1.251,2.517,3.183s-.978,3.183-2.493,3.183a2.016,2.016,0,0,1-1.717-.882h-.024v2.933Zm1.586-5.234c0,1.2.513,1.907,1.265,1.907.8,0,1.312-.751,1.312-1.907s-.513-1.908-1.312-1.908C591.185,1867.786,590.672,1868.49,590.672,1869.694Zm-36.566-.068a2.949,2.949,0,0,1,3.024-3.192,2.813,2.813,0,0,1,2.821,2.029,5.04,5.04,0,0,1,.193,1.56h-4.381c.049,1.26.661,1.7,1.381,1.7a1.105,1.105,0,0,0,1.2-.851h1.716a2.775,2.775,0,0,1-2.916,2.039C555.222,1872.914,554.106,1871.571,554.106,1869.627Zm1.692-.66h2.665a1.325,1.325,0,0,0-1.333-1.345C556.446,1867.622,555.93,1868.043,555.8,1868.967Zm15.16.727a3.1,3.1,0,1,1,3.1,3.219A2.951,2.951,0,0,1,570.958,1869.694Zm1.753,0c0,1.18.525,1.931,1.347,1.931s1.348-.751,1.348-1.931-.525-1.932-1.348-1.932S572.711,1868.513,572.711,1869.694Zm-8.528,0a2.945,2.945,0,0,1,3.054-3.219,2.68,2.68,0,0,1,2.862,2.444h-1.742a1.122,1.122,0,0,0-1.133-1.156c-.81,0-1.3.739-1.3,1.931s.49,1.931,1.3,1.931c.644,0,1.074-.489,1.121-1.276H570.1a2.694,2.694,0,0,1-2.862,2.564A2.946,2.946,0,0,1,564.184,1869.694Zm-24.953,2.225h-.023v.8h-1.633v-8.544h1.68v3.18h.024a2.029,2.029,0,0,1,1.728-.888c1.525,0,2.508,1.26,2.508,3.2s-1,3.2-2.533,3.2A2.012,2.012,0,0,1,539.231,1871.919Zm-.059-2.245c0,1.212.516,1.921,1.272,1.921.8,0,1.32-.757,1.32-1.921s-.516-1.92-1.32-1.92C539.687,1867.755,539.171,1868.463,539.171,1869.674Zm-6.887,2.245h-.023v.8h-1.633v-8.544h1.68v3.18h.023a2.03,2.03,0,0,1,1.729-.888c1.525,0,2.508,1.26,2.508,3.2s-1,3.2-2.533,3.2A2.01,2.01,0,0,1,532.284,1871.919Zm-.06-2.245c0,1.212.517,1.921,1.273,1.921.8,0,1.32-.757,1.32-1.921s-.516-1.92-1.32-1.92C532.741,1867.755,532.224,1868.463,532.224,1869.674Zm-26.508,1.345c0-1,.6-1.669,2.364-1.944.456-.072,1.14-.144,1.525-.168v-.216c0-.768-.409-1.08-1-1.08a.907.907,0,0,0-1.009.924h-1.632c.059-1.165.9-2.1,2.641-2.1s2.616.816,2.616,2.412v2.209a6.441,6.441,0,0,0,.167,1.668h-1.512a3.464,3.464,0,0,1-.084-.816h-.024a2.291,2.291,0,0,1-1.98.96A1.864,1.864,0,0,1,505.716,1871.019Zm2.664-.96c-.7.12-.984.348-.984.84,0,.456.311.769.9.769a1.373,1.373,0,0,0,.96-.348,1.451,1.451,0,0,0,.348-1.164v-.229C509.244,1869.951,508.74,1870,508.38,1870.059Zm87.337.971c0-.99.6-1.658,2.349-1.932.454-.071,1.133-.143,1.515-.167v-.215c0-.762-.406-1.073-.99-1.073a.9.9,0,0,0-1,.918h-1.622c.059-1.156.895-2.086,2.624-2.086s2.6.811,2.6,2.4v2.193a6.326,6.326,0,0,0,.167,1.658h-1.5a3.471,3.471,0,0,1-.084-.811h-.023a2.276,2.276,0,0,1-1.968.954A1.853,1.853,0,0,1,595.717,1871.03Zm2.648-.954c-.692.119-.978.346-.978.834,0,.454.31.763.895.763a1.365,1.365,0,0,0,.954-.346,1.442,1.442,0,0,0,.346-1.156v-.227C599.223,1869.968,598.722,1870.016,598.365,1870.076Zm8.3,2.647v-3.553c0-.918-.4-1.336-1.061-1.336-.691,0-1.193.548-1.193,1.645v3.244h-1.669v-6.057H604.3v.762h.023a2.157,2.157,0,0,1,1.778-.905c1.359,0,2.23.834,2.23,2.479v3.721Zm-20.811,0v-3.553c0-.918-.37-1.336-.954-1.336-.715,0-1.109.632-1.109,1.777v3.112h-1.67v-3.661c0-.775-.334-1.228-.954-1.228-.727,0-1.109.643-1.109,1.777v3.112h-1.669v-6.057h1.574v.691h.023a1.958,1.958,0,0,1,1.682-.834,1.86,1.86,0,0,1,1.8,1.037,2.167,2.167,0,0,1,1.931-1.037c1.3,0,2.123.834,2.123,2.479v3.721Zm-34.4,0v-6.1h1.68v6.1Zm-5.531,0-2.652-8.544h1.8l1.021,3.324c.36,1.152.672,2.328.924,3.492h.024c.252-1.164.576-2.34.923-3.492l1.021-3.324h1.8l-2.652,8.544Zm-17.8,0-.66-2.088h-3.277l-.672,2.088h-1.848l2.965-8.544h2.376l2.965,8.544Zm-3.276-4.164-.181.564h2.317l-.18-.564c-.347-1.1-.684-2.232-.972-3.335h-.024C525.52,1866.326,525.2,1867.455,524.849,1868.558Zm-8.413,4.164v-3.576c0-.924-.409-1.344-1.068-1.344-.7,0-1.2.552-1.2,1.655v3.264h-1.68v-6.1h1.572v.768h.024a2.169,2.169,0,0,1,1.788-.912c1.368,0,2.245.84,2.245,2.5v3.744Zm35.023-7.1v-1.44h1.68v1.44Zm-65.641-2.6a3.574,3.574,0,0,1-.628-7.061,3.58,3.58,0,1,1,.814,7.066C485.941,1863.023,485.879,1863.022,485.817,1863.019Zm80.742-5.146,1.7-2.755c4.252,2.874,8.787,1.894,8.787-3.55-1.159,1.3-1.927,2.289-4.625,2.289-2.108,0-5.244-1.348-5.244-6.222,0-4.154,2.92-8.573,7.229-8.573a4.809,4.809,0,0,1,3.958,2.24l.5-1.838h3.912l-1.925,14.965c-.372,2.586-3.073,5.468-8,5.468A9.889,9.889,0,0,1,566.559,1857.873Zm4.945-10.567c0,2.027.895,3.209,2.7,3.209,1.956,0,3.246-2,3.475-3.632.537-3.3-.879-4.492-2.6-4.492h-.025C572.612,1842.407,571.5,1845.565,571.5,1847.306Zm-79.781,7.72a3.605,3.605,0,1,1,3.9,3.56c-.107.01-.215.014-.324.014A3.574,3.574,0,0,1,491.723,1855.026Zm-18.423,0a3.575,3.575,0,1,1,3.574,3.574A3.572,3.572,0,0,1,473.3,1855.026Zm116.518-.321c-3.587,0-5.335-2.208-5.335-7.069,0-4.154,2.921-8.573,7.229-8.573a4.809,4.809,0,0,1,3.958,2.24l.5-1.838h3.912l-1.925,14.965h-3.92v-1.96a5.967,5.967,0,0,1-4.395,2.235Zm-1.073-7.39c0,2.8.878,4.066,2.682,4.06,2.281,0,3.334-2.864,3.561-4.492.026-3.458-.945-4.492-2.627-4.492C590.207,1842.391,588.745,1845.574,588.745,1847.315Zm-47.507.411c0-5.034,3.478-8.591,8.2-8.591,5.678-.014,5.318,4.3,5.318,4.3,0,3.643-3.63,5.191-9.4,5.518a2.812,2.812,0,0,0,3,2.693,6.786,6.786,0,0,0,4.185-1.651l1.4,2.413a8.445,8.445,0,0,1-6.171,2.3C542.728,1854.7,541.232,1851.563,541.238,1847.726Zm4.277-1.629c3.114-.167,5.356-.779,5.374-2.526a1.671,1.671,0,0,0-1.826-1.641C546.743,1841.93,545.5,1844.779,545.515,1846.1Zm65.245,8.333,1.231-9.633c.342-3.442-4.7-2.029-5.107.57l-1.231,9.063h-4.195l1.938-14.983h3.921l-.023,2.113a5.681,5.681,0,0,1,4.879-2.475,3.814,3.814,0,0,1,4.1,4.39l-1.254,10.955Zm-54.72,0,1.906-14.965h3.947v2.228c1.5-2.479,3.358-3.108,5.5-2.228l-.994,3.892c-2.633-.928-4.728,1.5-4.94,2.74l-1.208,8.333Zm-22.572,0,2.594-20.714h.112l.005-.042h4.175l-2.6,20.746h-.117l0,.011Zm-7.491,0,2.594-20.714h.1l.005-.042h4.175l-2.6,20.746h-.105l0,.011Zm-6.35,0-.664-4.294H512l-1.78,4.234h-.073l0,.011h-4.271L515,1834.329h.067l.019-.041h5.252l3.812,20.132h-.1l0,.011Zm-6.3-7.589h5.057l-1.445-8.416Zm107.363,7.578v-.754c0-.035,0-.077,0-.122s.006-.17.014-.371h-.01l-.41,1.247h-.31l-.383-1.25h-.01c.013.255.021.424.021.509v.741h-.3v-1.593h.459l.378,1.219h.006l.4-1.219H621v1.593Zm-2.315,0v-1.311h-.433v-.282h1.2v.282h-.432v1.311Zm-131.819-2.028a1.991,1.991,0,1,1,1.989,1.989A1.988,1.988,0,0,1,486.551,1852.392Zm-18.384,0a1.989,1.989,0,1,1,1.989,1.989A1.982,1.982,0,0,1,468.167,1852.392Zm14.808-1.509a1.306,1.306,0,1,1,1.306,1.306A1.3,1.3,0,0,1,482.974,1850.882Zm-18.933-.569a1.307,1.307,0,1,1,1.306,1.306A1.3,1.3,0,0,1,464.041,1850.314Zm31.881-4.755a3.579,3.579,0,1,1,3.575,3.574A3.576,3.576,0,0,1,495.922,1845.558Zm-26.821,0a3.575,3.575,0,1,1,3.575,3.574A3.559,3.559,0,0,1,469.1,1845.558Zm21.093,0a1.991,1.991,0,1,1,1.989,1.989A1.99,1.99,0,0,1,490.194,1845.558Zm-26.836,0a1.989,1.989,0,1,1,1.989,1.989A1.988,1.988,0,0,1,463.358,1845.558Zm23.028,0a1.306,1.306,0,1,1,1.306,1.306A1.306,1.306,0,0,1,486.386,1845.558Zm-27.386,0v-.024a1.308,1.308,0,0,1,2.616,0,1.34,1.34,0,0,1-.023.249,1.306,1.306,0,0,1-2.593-.225Zm5.041-4.718a1.307,1.307,0,1,1,1.306,1.306A1.3,1.3,0,0,1,464.041,1840.84Zm18.933-.554a1.306,1.306,0,1,1,1.306,1.306A1.3,1.3,0,0,1,482.974,1840.286Zm3.577-1.523a1.99,1.99,0,1,1,1.989,1.989A1.982,1.982,0,0,1,486.551,1838.763Zm-18.384,0a1.989,1.989,0,1,1,1.989,1.989A1.986,1.986,0,0,1,468.167,1838.763Zm23.557-2.717a3.576,3.576,0,1,1,3.575,3.574A3.568,3.568,0,0,1,491.723,1836.046Zm-18.423,0a3.575,3.575,0,1,1,3.574,3.574A3.554,3.554,0,0,1,473.3,1836.046Zm9.087-4.422a3.575,3.575,0,1,1,3.575,3.574A3.557,3.557,0,0,1,482.387,1831.624Z"/>
  </g>
</svg>
